<svg width="1322" height="737" viewBox="0 0 1322 737" fill="none" xmlns="http://www.w3.org/2000/svg">
<rect width="1321.15" height="736.624" rx="20" fill="black"/>
<path fill-rule="evenodd" clip-rule="evenodd" d="M836.249 42.7786C846.065 42.4069 855.923 42.4245 865.729 42.9202C868.188 43.0446 871.385 45.0992 872.779 47.2259C887.215 69.2385 901.536 91.3313 915.537 113.622C991.142 233.986 1066.42 354.555 1142.27 474.764C1187.17 545.927 1232.93 616.551 1278.24 687.456C1279.57 689.533 1280.2 692.058 1281.15 694.374C1278.65 694.941 1276.16 696.005 1273.66 696.004C1156.84 695.971 1040.02 695.791 923.205 695.77C893.877 695.764 864.537 695.83 835.222 696.593C803.215 697.427 781.97 681.635 767.88 654.482C762.404 643.928 761.431 632.153 761.418 620.405C761.329 542.081 761.286 463.757 761.234 385.434C761.222 366.603 761.232 347.771 761.232 328.44C761.387 259.95 760.845 191.949 762.011 123.977C762.539 93.1685 777.719 69.041 804.053 52.5159C813.842 46.373 824.742 43.2143 836.249 42.7786ZM340.625 40.0149C376.41 40.353 411.847 43.4277 446.429 53.3245C471.994 60.6409 496.243 70.9615 519.833 83.3157C564.507 106.712 603.108 137.395 634.026 177.174C680.835 237.397 704.036 305.636 700.863 382.252C697.073 473.779 658.389 548.663 590.905 609.182C533.993 660.22 466.457 687.467 390.734 694.563C358.219 697.61 326.161 692.825 294.686 684.743C249.906 673.246 209.065 653.464 172.234 624.797C108.975 574.549 70.6261 510.3 59.4571 430.242C55.3086 400.507 55.5762 370.794 58.5127 340.998C59.0197 335.854 61.9962 335.896 65.7412 335.899C124.397 335.94 183.052 335.928 241.708 335.928C269.869 335.928 298.032 335.821 326.191 336.033C330.926 336.069 332.359 334.872 332.352 329.986C332.208 236.003 332.245 142.021 332.246 48.0384C332.246 39.8792 332.25 39.9358 340.625 40.0149ZM63.25 93.0266C92.9109 49.8904 153.619 32.1539 201.564 52.8802C209.008 56.0979 215.924 60.5355 223.38 64.6136C283.812 107.042 291.454 195.245 239.035 246.758C205.05 280.156 164.592 290.785 119.123 275.933C81.7943 263.74 57.3463 237.477 45.7627 199.973C33.9137 161.609 40.624 125.932 63.25 93.0266Z" fill="#FEFEFE"/>
</svg>
